<?xml version="1.0" encoding="UTF-8"?><svg id="a" xmlns="http://www.w3.org/2000/svg" xmlns:xlink="http://www.w3.org/1999/xlink" viewBox="0 0 935.429 526.179"><defs><linearGradient id="b" x1="227.72" y1="263.488" x2="706.381" y2="263.488" gradientUnits="userSpaceOnUse"><stop offset="0" stop-color="#2fd2f1"/><stop offset=".067" stop-color="#31c2ee"/><stop offset=".211" stop-color="#36a5e9"/><stop offset=".366" stop-color="#398fe5"/><stop offset=".535" stop-color="#3c80e3"/><stop offset=".728" stop-color="#3d76e1"/><stop offset=".999" stop-color="#3e74e1"/></linearGradient><linearGradient id="e" x1="262.409" y1="337.348" x2="641.803" y2="337.348" gradientUnits="userSpaceOnUse"><stop offset="0" stop-color="#0470ba"/><stop offset=".003" stop-color="#036fb9"/><stop offset=".179" stop-color="#0165aa"/><stop offset=".381" stop-color="#005fa0"/><stop offset=".665" stop-color="#005e9e"/></linearGradient></defs><path d="m671.992,21.179s34.389,2.444,34.389,35.111v119.889s-.222,33.889-38.556,33.889h-63.111l-45.083,42.194s-5.583-84.194-98.361-84.194c-44.222,0-84.556,44.944-84.556,90.444s39,90.833,91,90.833,85.167-45,85.167-57.667h45.333s17.333-11.667,35.5-11.667,58.833,12.833,58.833,55-29,52.833-29,52.833c0,0-22.083,32.5-36.583,44.167s-78.25,61.167-140.917,61.167-86.056-6.271-131.833-27.604c-4.189-1.952-12.896,5.312-12.896,5.312l-60.604,34.125s-18.083,5.25-18.083-11.417v-109.917s-23.75-44.333-28.917-71.167-9.333-65.667-2.167-96.333,23.5-78.333,48.667-105.5,59.833-60.722,97.833-72.5,70.167-17,98.333-17h195.611Z" fill="url(#b)" stroke="#000" stroke-miterlimit="10"/><g id="c"><path d="m376.715,260.512s-5,48.889,11.778,80.889,35.444,59,78,81.556,93.333,20,93.333,20c0,0,50.665-4.528,75.444-25.611s34.195-35.75,34.195-35.75l-40.417-96.972-30.5,6.889-45.667.167s-8.5,19.417-16.5,26.833-32.889,34.111-72.111,30.333-64.056-26.389-73.333-41.889-12.056-27.194-13.056-36.111-1.167-10.333-1.167-10.333Z" fill="#00437a" stroke="#000" stroke-miterlimit="10"/></g><g id="d"><path d="m446.131,169.901s-60.056,9.611-99.056,41.944-62.333,71.311-71.111,95.889c-4.583,12.833-12.028,36.222-13.028,58.056-.498,10.878-.417,19.944-.417,19.944l-.111,50.889v55.639s0,8.083,4.542,10.625,9.583,3.125,19.042-1.917,55.021-30.75,55.021-30.75c0,0,7.257-8.125,13.84-5.069s53.444,25.22,91.278,26.124,77.167,5.237,124.056-21.874c46.889-27.111,59.972-40.722,69.806-51.306,9.833-10.583,23.333-29.833,23.333-29.833,0,0-12.5,20-35.917,32.917-23.417,12.917-41.417,19.417-65.667,20.5s-56.25.667-93.25-18c-37-18.667-57.417-41.667-72.583-67.5s-20.061-46.167-20.197-70.333-1.136-36.667,5.031-56,28.875-44.417,39.458-49.667,25.931-10.278,25.931-10.278Z" fill="url(#e)" stroke="#000" stroke-miterlimit="10"/></g><circle cx="635.27" cy="339.423" r="59.555" fill="#f48023" stroke="#000" stroke-miterlimit="10"/></svg>