<svg width="228" height="40" viewBox="0 0 228 40" fill="none" xmlns="http://www.w3.org/2000/svg">
<g clip-path="url(#clip0_577_445)">
<path d="M23.2273 16.4545H16.8182C16.7727 15.9242 16.6515 15.4432 16.4545 15.0114C16.2652 14.5795 16 14.2083 15.6591 13.8977C15.3258 13.5795 14.9205 13.3371 14.4432 13.1705C13.9659 12.9962 13.4242 12.9091 12.8182 12.9091C11.7576 12.9091 10.8598 13.1667 10.125 13.6818C9.39773 14.197 8.8447 14.9356 8.46591 15.8977C8.0947 16.8598 7.90909 18.0152 7.90909 19.3636C7.90909 20.7879 8.09848 21.9811 8.47727 22.9432C8.86364 23.8977 9.42045 24.6174 10.1477 25.1023C10.875 25.5795 11.75 25.8182 12.7727 25.8182C13.3561 25.8182 13.8788 25.7462 14.3409 25.6023C14.803 25.4508 15.2045 25.2348 15.5455 24.9545C15.8864 24.6742 16.1629 24.3371 16.375 23.9432C16.5947 23.5417 16.7424 23.0909 16.8182 22.5909L23.2273 22.6364C23.1515 23.6212 22.875 24.625 22.3977 25.6477C21.9205 26.6629 21.2424 27.6023 20.3636 28.4659C19.4924 29.322 18.4129 30.0114 17.125 30.5341C15.8371 31.0568 14.3409 31.3182 12.6364 31.3182C10.5 31.3182 8.58333 30.8598 6.88636 29.9432C5.19697 29.0265 3.85985 27.678 2.875 25.8977C1.89773 24.1174 1.40909 21.9394 1.40909 19.3636C1.40909 16.7727 1.90909 14.5909 2.90909 12.8182C3.90909 11.0379 5.25758 9.69318 6.95455 8.78409C8.65152 7.86742 10.5455 7.40909 12.6364 7.40909C14.1061 7.40909 15.4583 7.60985 16.6932 8.01136C17.928 8.41288 19.0114 9 19.9432 9.77273C20.875 10.5379 21.625 11.4811 22.1932 12.6023C22.7614 13.7235 23.1061 15.0076 23.2273 16.4545ZM34.5938 31.3182C32.6998 31.3182 31.0786 30.9432 29.7301 30.1932C28.3816 29.4356 27.3475 28.3826 26.6278 27.0341C25.9081 25.678 25.5483 24.1061 25.5483 22.3182C25.5483 20.5303 25.9081 18.9621 26.6278 17.6136C27.3475 16.2576 28.3816 15.2045 29.7301 14.4545C31.0786 13.697 32.6998 13.3182 34.5938 13.3182C36.4877 13.3182 38.1089 13.697 39.4574 14.4545C40.8059 15.2045 41.84 16.2576 42.5597 17.6136C43.2794 18.9621 43.6392 20.5303 43.6392 22.3182C43.6392 24.1061 43.2794 25.678 42.5597 27.0341C41.84 28.3826 40.8059 29.4356 39.4574 30.1932C38.1089 30.9432 36.4877 31.3182 34.5938 31.3182ZM34.6392 26.6818C35.1695 26.6818 35.6278 26.5038 36.0142 26.1477C36.4006 25.7917 36.6998 25.2841 36.9119 24.625C37.1241 23.9659 37.2301 23.1818 37.2301 22.2727C37.2301 21.3561 37.1241 20.572 36.9119 19.9205C36.6998 19.2614 36.4006 18.7538 36.0142 18.3977C35.6278 18.0417 35.1695 17.8636 34.6392 17.8636C34.0786 17.8636 33.5975 18.0417 33.196 18.3977C32.7945 18.7538 32.4877 19.2614 32.2756 19.9205C32.0634 20.572 31.9574 21.3561 31.9574 22.2727C31.9574 23.1818 32.0634 23.9659 32.2756 24.625C32.4877 25.2841 32.7945 25.7917 33.196 26.1477C33.5975 26.5038 34.0786 26.6818 34.6392 26.6818ZM46.1847 31V13.5455H52.1392V16.8636H52.321C52.6847 15.7727 53.3059 14.9091 54.1847 14.2727C55.0634 13.6364 56.1089 13.3182 57.321 13.3182C58.5483 13.3182 59.6051 13.6439 60.4915 14.2955C61.3778 14.9394 61.9119 15.7955 62.0938 16.8636H62.2756C62.571 15.7955 63.1998 14.9394 64.1619 14.2955C65.1241 13.6439 66.2528 13.3182 67.5483 13.3182C69.2225 13.3182 70.5786 13.8561 71.6165 14.9318C72.6619 16.0076 73.1847 17.4394 73.1847 19.2273V31H66.9119V20.8182C66.9119 20.053 66.7188 19.4545 66.3324 19.0227C65.946 18.5833 65.4271 18.3636 64.7756 18.3636C64.1316 18.3636 63.6203 18.5833 63.2415 19.0227C62.8703 19.4545 62.6847 20.053 62.6847 20.8182V31H56.6847V20.8182C56.6847 20.053 56.4915 19.4545 56.1051 19.0227C55.7188 18.5833 55.1998 18.3636 54.5483 18.3636C54.1165 18.3636 53.7453 18.4621 53.4347 18.6591C53.1241 18.8561 52.8816 19.1402 52.7074 19.5114C52.5407 19.875 52.4574 20.3106 52.4574 20.8182V31H46.1847ZM76.2784 31V13.5455H82.233V16.8636H82.4148C82.7784 15.7727 83.3996 14.9091 84.2784 14.2727C85.1572 13.6364 86.2027 13.3182 87.4148 13.3182C88.642 13.3182 89.6989 13.6439 90.5852 14.2955C91.4716 14.9394 92.0057 15.7955 92.1875 16.8636H92.3693C92.6648 15.7955 93.2936 14.9394 94.2557 14.2955C95.2178 13.6439 96.3466 13.3182 97.642 13.3182C99.3163 13.3182 100.672 13.8561 101.71 14.9318C102.756 16.0076 103.278 17.4394 103.278 19.2273V31H97.0057V20.8182C97.0057 20.053 96.8125 19.4545 96.4261 19.0227C96.0398 18.5833 95.5208 18.3636 94.8693 18.3636C94.2254 18.3636 93.714 18.5833 93.3352 19.0227C92.964 19.4545 92.7784 20.053 92.7784 20.8182V31H86.7784V20.8182C86.7784 20.053 86.5852 19.4545 86.1989 19.0227C85.8125 18.5833 85.2936 18.3636 84.642 18.3636C84.2102 18.3636 83.839 18.4621 83.5284 18.6591C83.2178 18.8561 82.9754 19.1402 82.8011 19.5114C82.6345 19.875 82.5511 20.3106 82.5511 20.8182V31H76.2784ZM117.69 23.3636V13.5455H123.963V31H118.009V27.6818H117.827C117.448 28.7955 116.785 29.6667 115.838 30.2955C114.891 30.9167 113.766 31.2273 112.463 31.2273C111.243 31.2273 110.175 30.947 109.259 30.3864C108.349 29.8258 107.641 29.053 107.134 28.0682C106.634 27.0833 106.38 25.9545 106.372 24.6818V13.5455H112.645V23.3636C112.652 24.2273 112.872 24.9053 113.304 25.3977C113.743 25.8902 114.357 26.1364 115.145 26.1364C115.668 26.1364 116.118 26.0265 116.497 25.8068C116.884 25.5795 117.179 25.2614 117.384 24.8523C117.596 24.4356 117.698 23.9394 117.69 23.3636ZM133.426 21.1818V31H127.153V13.5455H133.108V16.8636H133.29C133.669 15.7576 134.335 14.8902 135.29 14.2614C136.252 13.6326 137.373 13.3182 138.653 13.3182C139.888 13.3182 140.96 13.6023 141.869 14.1705C142.786 14.7311 143.494 15.5038 143.994 16.4886C144.502 17.4735 144.752 18.5985 144.744 19.8636V31H138.472V21.1818C138.479 20.3182 138.259 19.6402 137.812 19.1477C137.373 18.6553 136.759 18.4091 135.972 18.4091C135.456 18.4091 135.006 18.5227 134.619 18.75C134.241 18.9697 133.949 19.2879 133.744 19.7045C133.54 20.1136 133.434 20.6061 133.426 21.1818ZM147.841 31V13.5455H154.114V31H147.841ZM150.977 11.7273C150.129 11.7273 149.402 11.447 148.795 10.8864C148.189 10.3258 147.886 9.65151 147.886 8.86364C147.886 8.07576 148.189 7.40151 148.795 6.84091C149.402 6.2803 150.129 6 150.977 6C151.833 6 152.561 6.2803 153.159 6.84091C153.765 7.40151 154.068 8.07576 154.068 8.86364C154.068 9.65151 153.765 10.3258 153.159 10.8864C152.561 11.447 151.833 11.7273 150.977 11.7273ZM165.719 31.3182C163.825 31.3182 162.204 30.9432 160.855 30.1932C159.507 29.4356 158.473 28.3826 157.753 27.0341C157.033 25.678 156.673 24.1061 156.673 22.3182C156.673 20.5303 157.033 18.9621 157.753 17.6136C158.473 16.2576 159.507 15.2045 160.855 14.4545C162.204 13.697 163.825 13.3182 165.719 13.3182C167.431 13.3182 168.912 13.6288 170.162 14.25C171.42 14.8636 172.393 15.7348 173.082 16.8636C173.772 17.9848 174.12 19.303 174.128 20.8182H168.31C168.226 19.9015 167.961 19.2045 167.514 18.7273C167.075 18.2424 166.507 18 165.81 18C165.264 18 164.787 18.1591 164.378 18.4773C163.969 18.7879 163.651 19.2614 163.423 19.8977C163.196 20.5265 163.082 21.3182 163.082 22.2727C163.082 23.2273 163.196 24.0227 163.423 24.6591C163.651 25.2879 163.969 25.7614 164.378 26.0795C164.787 26.3902 165.264 26.5455 165.81 26.5455C166.272 26.5455 166.681 26.4394 167.037 26.2273C167.393 26.0076 167.681 25.6894 167.901 25.2727C168.128 24.8485 168.264 24.3333 168.31 23.7273H174.128C174.105 25.2652 173.753 26.6061 173.071 27.75C172.389 28.8864 171.423 29.7652 170.173 30.3864C168.931 31.0076 167.446 31.3182 165.719 31.3182ZM185.125 31.3182C183.231 31.3182 181.61 30.9432 180.261 30.1932C178.913 29.4356 177.879 28.3826 177.159 27.0341C176.439 25.678 176.08 24.1061 176.08 22.3182C176.08 20.5303 176.439 18.9621 177.159 17.6136C177.879 16.2576 178.913 15.2045 180.261 14.4545C181.61 13.697 183.231 13.3182 185.125 13.3182C187.019 13.3182 188.64 13.697 189.989 14.4545C191.337 15.2045 192.371 16.2576 193.091 17.6136C193.811 18.9621 194.17 20.5303 194.17 22.3182C194.17 24.1061 193.811 25.678 193.091 27.0341C192.371 28.3826 191.337 29.4356 189.989 30.1932C188.64 30.9432 187.019 31.3182 185.125 31.3182ZM185.17 26.6818C185.701 26.6818 186.159 26.5038 186.545 26.1477C186.932 25.7917 187.231 25.2841 187.443 24.625C187.655 23.9659 187.761 23.1818 187.761 22.2727C187.761 21.3561 187.655 20.572 187.443 19.9205C187.231 19.2614 186.932 18.7538 186.545 18.3977C186.159 18.0417 185.701 17.8636 185.17 17.8636C184.61 17.8636 184.129 18.0417 183.727 18.3977C183.326 18.7538 183.019 19.2614 182.807 19.9205C182.595 20.572 182.489 21.3561 182.489 22.2727C182.489 23.1818 182.595 23.9659 182.807 24.625C183.019 25.2841 183.326 25.7917 183.727 26.1477C184.129 26.5038 184.61 26.6818 185.17 26.6818ZM196.716 31V13.5455H202.807V16.8636H202.989C203.307 15.6364 203.811 14.7386 204.5 14.1705C205.197 13.6023 206.011 13.3182 206.943 13.3182C207.216 13.3182 207.485 13.3409 207.75 13.3864C208.023 13.4242 208.284 13.4811 208.534 13.5568V18.9091C208.223 18.803 207.841 18.7235 207.386 18.6705C206.932 18.6174 206.542 18.5909 206.216 18.5909C205.602 18.5909 205.049 18.7311 204.557 19.0114C204.072 19.2841 203.689 19.6705 203.409 20.1705C203.129 20.6629 202.989 21.2424 202.989 21.9091V31H196.716ZM217.955 31.3182C216.091 31.3182 214.485 30.9621 213.136 30.25C211.795 29.5303 210.761 28.5 210.034 27.1591C209.314 25.8106 208.955 24.197 208.955 22.3182C208.955 20.5152 209.318 18.9394 210.045 17.5909C210.773 16.2424 211.799 15.1932 213.125 14.4432C214.451 13.6932 216.015 13.3182 217.818 13.3182C219.136 13.3182 220.33 13.5227 221.398 13.9318C222.466 14.3409 223.379 14.9356 224.136 15.7159C224.894 16.4886 225.477 17.428 225.886 18.5341C226.295 19.6402 226.5 20.8864 226.5 22.2727V23.7273H210.909V20.2727H220.727C220.72 19.7727 220.591 19.3333 220.341 18.9545C220.098 18.5682 219.769 18.2689 219.352 18.0568C218.943 17.8371 218.477 17.7273 217.955 17.7273C217.447 17.7273 216.981 17.8371 216.557 18.0568C216.133 18.2689 215.792 18.5644 215.534 18.9432C215.284 19.322 215.152 19.7652 215.136 20.2727V24C215.136 24.5606 215.254 25.0606 215.489 25.5C215.723 25.9394 216.061 26.2841 216.5 26.5341C216.939 26.7841 217.47 26.9091 218.091 26.9091C218.523 26.9091 218.917 26.8485 219.273 26.7273C219.636 26.6061 219.947 26.4318 220.205 26.2045C220.462 25.9697 220.652 25.6894 220.773 25.3636H226.5C226.303 26.5758 225.837 27.6288 225.102 28.5227C224.367 29.4091 223.394 30.0985 222.182 30.5909C220.977 31.0758 219.568 31.3182 217.955 31.3182Z" fill="#77A6F7"/>
<path d="M1.96356 34.5929L2.29518 22.473L12.6254 28.8201L1.96356 34.5929Z" fill="#77A6F7"/>
</g>
<defs>
<clipPath id="clip0_577_445">
<rect width="228" height="40" fill="white"/>
</clipPath>
</defs>
</svg>
